<?xml version="1.0" encoding="utf-8"?>
<!-- Generator: Adobe Illustrator 27.5.0, SVG Export Plug-In . SVG Version: 6.00 Build 0)  -->
<svg version="1.1" xmlns="http://www.w3.org/2000/svg" xmlns:xlink="http://www.w3.org/1999/xlink" x="0px" y="0px"
	 viewBox="0 0 500 500" style="enable-background:new 0 0 500 500;" xml:space="preserve">
<g id="BACKGROUND">
	<rect style="fill:#FFFFFF;" width="500" height="500"/>
</g>
<g id="OBJECTS">
	<g>
		<g>
			
				<ellipse transform="matrix(0.7071 -0.7071 0.7071 0.7071 -96.4721 247.0667)" style="fill:#D9D9EB;" cx="250" cy="239.985" rx="192.549" ry="192.549"/>
		</g>
	</g>
	<g>
		<ellipse style="fill:#C3C3D4;" cx="87.765" cy="360.947" rx="31.84" ry="5.305"/>
		<g>
			<path style="fill:#59291E;" d="M110.499,344.905c-1.244,2.309-3.298,4.798-6.042,6.582c-1.904,1.259-4.138,2.174-6.672,2.444
				c-0.12,0-0.225,0.015-0.33,0.015c-1.514,0-2.819-1.139-2.984-2.684c-0.18-1.649,1.02-3.119,2.669-3.298
				c2.729-0.3,4.978-1.904,6.537-3.688c0.63-0.735,1.154-1.499,1.544-2.219c1.109-2.054,1.079-3.493,0.885-3.868
				c-0.33-0.36-1.544-0.525-3.149-0.45c-1.544,0.075-3.448,0.36-5.278,0.9c-1.02,0.285-2.069,0.03-2.804-0.63
				c-0.42-0.345-0.75-0.84-0.915-1.409c-0.375-1.275,0.135-2.594,1.185-3.298c0.255-0.18,0.54-0.33,0.855-0.42
				c0.915-0.27,3.478-0.945,6.312-1.109c3.523-0.195,7.467,0.435,9.131,3.688C112.733,337.963,112.388,341.412,110.499,344.905z"/>
			<path style="fill:#331811;" d="M102.957,337.738c-1.544,0.075-3.448,0.36-5.278,0.9c-1.02,0.285-2.069,0.03-2.804-0.63
				l0.27-4.708c0.255-0.18,0.54-0.33,0.855-0.42c0.915-0.27,3.478-0.945,6.312-1.109L102.957,337.738z"/>
			<path style="fill:#331811;" d="M104.457,351.487c-1.904,1.259-4.138,2.174-6.672,2.444c-0.12,0-0.225,0.015-0.33,0.015
				c-1.514,0-2.819-1.139-2.984-2.684c-0.18-1.649,1.02-3.119,2.669-3.298c2.729-0.3,4.978-1.904,6.537-3.688L104.457,351.487z"/>
			<path style="fill:#59291E;" d="M60.99,322.891v36.274c0,1.763,8.51,3.192,19.008,3.192c10.497,0,19.007-1.429,19.007-3.192
				v-36.274H60.99z"/>
			<path style="fill:#7A473E;" d="M63.151,360.64c1.483,0.476,3.653,0.883,6.3,1.18c-0.49-12.974-0.323-25.974,0.513-38.929h-6.813
				V360.64z"/>
			<path style="fill:#331811;" d="M85.244,362.231c3.497-0.149,6.571-0.442,8.928-0.834c1.398-11.256,2.036-23.985,1.913-35.308
				c0,0-4.651,1.082-10.098,1.403C86.207,328.935,87.581,350.784,85.244,362.231z"/>
			<path style="fill:#59291E;" d="M98.999,322.895c0,0.525-0.779,1.034-2.159,1.469c-3.163,1.02-9.521,1.724-16.837,1.724
				c-7.332,0-13.689-0.705-16.852-1.724c-1.379-0.435-2.159-0.945-2.159-1.469c0-1.769,8.501-3.194,19.011-3.194
				C90.498,319.702,98.999,321.126,98.999,322.895z"/>
			<path style="fill:#331811;" d="M96.84,324.364c-3.163,1.02-9.521,1.724-16.837,1.724c-7.332,0-13.689-0.705-16.852-1.724
				c2.729-1.169,9.251-1.979,16.852-1.979C87.59,322.385,94.112,323.195,96.84,324.364z"/>
			<path style="fill:#FFF7F7;" d="M74.239,313.194c-0.187,0.592,0.245-3.071-4.978-11.342c-5.223-8.27-6.73-16.396,2.584-27.35
				c0,0-6.792,11.342-3.745,19.346C71.147,301.853,76.388,306.399,74.239,313.194z"/>
			<path style="fill:#FFF7F7;" d="M83.48,298.951c0,0-1.161-8.125-3.918-15.815c-2.757-7.69-9.286-11.898,4.208-26.843
				c0,0-7.835,12.478-4.208,20.168C83.19,284.151,84.496,294.017,83.48,298.951z"/>
			<path style="fill:#FFF7F7;" d="M89.719,310.848c0,0,4.063-3.772,4.063-12.913c0-9.141-1.886-15.525-1.886-15.525
				s3.047,5.804,3.482,13.203C95.813,303.013,92.331,308.382,89.719,310.848z"/>
		</g>
	</g>
	<g>
		
			<ellipse transform="matrix(0.9505 -0.3108 0.3108 0.9505 -112.6798 86.1699)" style="fill:#C3C3D4;" cx="214.021" cy="396.622" rx="158.783" ry="44.098"/>
	</g>
	<g>
		<ellipse style="fill:#C3C3D4;" cx="400.317" cy="354.421" rx="33.18" ry="5.78"/>
		<g>
			<path style="fill:#59291E;" d="M417.598,307.428l-6.508,45.04c0,0.387-0.559,0.742-1.581,1.076
				c-0.054,0.022-0.107,0.032-0.161,0.054c-2.743,0.839-8.433,1.452-15.157,1.538c-0.592,0.022-1.183,0.022-1.786,0.022
				c-7.498,0-13.963-0.645-16.942-1.56c-1.119-0.344-1.743-0.721-1.743-1.13l-6.508-45.04H417.598z"/>
			<path style="fill:#331811;" d="M398.978,354.979c4.289-0.232,7.825-0.688,9.951-1.263l4.836-42.334c0,0-4.556,1.064-14.234,1.914
				C400.166,314.373,401.128,339.237,398.978,354.979z"/>
			<path style="fill:#59291E;" d="M417.598,307.428c0,0.549-0.839,1.065-2.345,1.527c-4.012,1.237-12.736,2.098-22.848,2.098
				c-10.111,0-18.835-0.861-22.848-2.098c-1.506-0.463-2.345-0.979-2.345-1.527c0-2.001,11.284-3.625,25.193-3.625
				C406.314,303.803,417.598,305.428,417.598,307.428z"/>
			<path style="fill:#331811;" d="M415.253,308.956c-1.71,0.527-4.281,0.979-7.433,1.334c-2.496,0.28-5.368,0.495-8.487,0.624
				c-1.581,0.065-3.216,0.108-4.905,0.129c-0.667,0.011-1.345,0.011-2.022,0.011c-4.55,0-8.831-0.172-12.521-0.484
				c-4.497-0.366-8.122-0.936-10.327-1.614c1.743-0.538,4.367-1.011,7.616-1.366h0.011c4.174-0.462,9.38-0.732,15.017-0.742h0.204
				c2.872,0,5.637,0.075,8.208,0.204c3.033,0.151,5.809,0.376,8.197,0.677C411.51,308.063,413.726,308.483,415.253,308.956z"/>
			<path style="fill:#63A69B;" d="M406.142,277.535c0,10.467-3.539,23.181-5.529,29.517c-0.645,2.055-1.13,3.431-1.28,3.862
				c-1.581,0.065-3.216,0.108-4.905,0.129c-0.667,0.011-1.345,0.011-2.022,0.011c-4.55,0-8.831-0.172-12.521-0.484
				c-0.527-0.559-1.484-1.603-2.7-2.98h-0.011c-6.497-7.358-20.729-24.429-19.126-31.518c2.087-9.154,11.951-2.98,11.08-14.5
				c-0.871-11.521-15.027-18.179-16.695-26.516c-1.667-8.326,4.991-13.737,2.915-19.148c-2.087-5.411-15.404-16.867-6.035-24.773
				c9.369-7.917,23.934,0.409,26.645,16.232c2.711,15.824,0.183,15.824,8.724,19.363c8.552,3.539,13.554-0.204,14.597,11.456
				c1.043,11.661-4.583,12.489-1.044,21.439C401.775,268.585,406.142,262.959,406.142,277.535z"/>
			<path style="fill:#99FFEE;" d="M370.363,284.447c-0.285-0.092-0.586,0.064-0.677,0.346c-0.091,0.283,0.064,0.586,0.346,0.678
				c0.094,0.03,9.377,3.054,12.728,5.869c0.101,0.085,0.224,0.126,0.346,0.126c0.153,0,0.306-0.065,0.412-0.192
				c0.191-0.227,0.162-0.566-0.066-0.757C379.942,287.567,370.753,284.573,370.363,284.447z M380.573,282.342
				c0.094,0.067,0.204,0.1,0.312,0.1c0.168,0,0.333-0.078,0.438-0.225c0.173-0.242,0.117-0.578-0.125-0.751
				c-3.037-2.17-5.126-2.041-5.209-2.041c-0.295,0.021-0.515,0.276-0.496,0.57c0.019,0.295,0.273,0.506,0.569,0.503
				C376.081,280.498,377.885,280.421,380.573,282.342z M391.055,242.81c-0.282-0.097-0.587,0.052-0.684,0.332
				c-0.039,0.113-3.913,11.358-5.019,17.711c-0.051,0.293,0.145,0.572,0.438,0.622c0.032,0.006,0.063,0.008,0.093,0.008
				c0.257,0,0.484-0.184,0.529-0.445c1.09-6.269,4.937-17.432,4.976-17.544C391.485,243.213,391.336,242.907,391.055,242.81z
				 M368.152,222.961c-0.243,0.172-0.3,0.507-0.129,0.75c0.162,0.229,15.872,23.156,21.191,87.312
				c0.354,0.006,0.721,0.006,1.08,0.01c-5.342-64.586-21.229-87.712-21.393-87.944C368.73,222.848,368.396,222.79,368.152,222.961z"
				/>
			<path style="fill:#7ED2C4;" d="M447.998,261.571c-8.95,10.757-23.117,10.822-23.117,17.136c0,6.325,4.378,1.527,2.291,7.885
				c-2.076,6.347-5.69,5.82-11.919,11.973c-3.399,3.345-5.357,6.755-6.443,9.165c-0.495,1.087-0.807,1.979-0.99,2.56
				c-3.765,0.42-8.369,0.699-13.393,0.753l-0.774-1.194c0,0-0.581-1.129-1.452-3.001c-2.84-6.099-8.724-20.062-7.293-28.14
				c1.872-10.542,6.25-14.511,11.037-12.317c4.787,2.195,7.498-6.486,7.702-18.179c0.215-11.693-2.291-18.771,5.207-16.48
				c7.497,2.291,12.908,0,17.91-12.284c4.991-12.285,12.069-20.406,22.482-17.491c10.413,2.915,3.959,10.413-1.463,23.526
				c-5.411,13.113-9.154,13.747-3.948,20.61C449.041,252.966,456.948,250.814,447.998,261.571z"/>
			<path style="fill:#99FFEE;" d="M434.356,259.273l-0.535,0.151l-0.302-0.438c-0.098,0.067-0.731,0.455-1.689,1.04
				c-3.492,2.136-10.759,6.58-13.097,8.332c-0.238,0.179-0.286,0.516-0.108,0.753c0.106,0.141,0.268,0.215,0.431,0.215
				c0.112,0,0.226-0.035,0.323-0.107c2.298-1.723,9.807-6.315,13.014-8.276C434.468,259.674,434.468,259.674,434.356,259.273z
				 M412.968,288.651l-7.085,3.887c-0.26,0.143-0.356,0.47-0.213,0.73c0.098,0.179,0.283,0.279,0.472,0.279
				c0.088,0,0.177-0.021,0.258-0.066l7.085-3.887c0.261-0.143,0.356-0.469,0.213-0.73
				C413.555,288.602,413.225,288.509,412.968,288.651z M400.872,286.19c0.039,0,0.08-0.004,0.12-0.014
				c0.289-0.065,0.471-0.354,0.406-0.643c-0.705-3.102-2.753-6.537-2.839-6.681c-0.152-0.254-0.483-0.336-0.738-0.185
				c-0.255,0.152-0.337,0.483-0.184,0.737c0.02,0.035,2.046,3.434,2.712,6.366C400.404,286.021,400.627,286.19,400.872,286.19z
				 M434.304,230.956c0.148-0.257,0.06-0.586-0.199-0.734c-0.256-0.149-0.586-0.06-0.734,0.197
				c-0.231,0.402-23.238,40.428-28.38,55.49c-3.473,10.174-5.005,19.783-5.638,25.003c0.367-0.015,0.729-0.032,1.089-0.05
				c0.638-5.202,2.161-14.625,5.569-24.607C411.118,271.293,434.073,231.357,434.304,230.956z M413.946,257.796
				c-0.052,0.293,0.141,0.573,0.433,0.626c0.033,0.005,0.065,0.008,0.098,0.008c0.254,0,0.481-0.182,0.528-0.441
				c0.837-4.602,0.04-12.545,0.005-12.881c-0.03-0.296-0.304-0.504-0.589-0.48c-0.295,0.03-0.511,0.295-0.48,0.59
				C413.949,245.298,414.756,253.345,413.946,257.796z"/>
		</g>
	</g>
	<g>
		<path style="fill:#FE656D;" d="M172.45,411.784l0.278,0.972l41.501,9.716c0,0-0.694,2.915,3.053,2.776
			c3.748-0.139,4.164-0.972,4.164-0.972l38.17,16.378l34.561-26.927l0.139-1.249c0,0-86.889-0.971-87.583-1.11
			C206.04,411.229,172.45,411.784,172.45,411.784z"/>
		<path style="fill:#DEA4A4;" d="M172.866,409.772l-0.416,2.013l42.751,10.132c0,0-0.555,2.776,2.36,2.637
			c2.915-0.139,3.47-1.11,3.47-1.11s23.874,8.467,38.448,16.378l34.839-27.344l-0.278-1.665l-99.936-5.136L172.866,409.772z"/>
		<path style="fill:#FFF7F7;" d="M172.866,409.772c0,0,27.482-4.997,45.596,11.035l35.394-24.151c0,0-7.495-13.741-35.394-11.035
			L172.866,409.772z"/>
		<path style="fill:#FFF7F7;" d="M218.462,420.806c0,0,20.82-3.539,41.015,17.697l34.561-27.691c0,0-16.031-14.991-40.183-14.158
			L218.462,420.806z"/>
		<path style="fill:#F8CAC9;" d="M253.856,396.655l-35.394,24.151c0,0,5.354-0.904,13.26,0.965l31.006-24.718
			C259.915,396.705,256.954,396.548,253.856,396.655z"/>
	</g>
	<g>
		<g>
			<path style="fill:#FFF7F7;" d="M252.511,158.954c0,0-7.991,3.881-10.959,8.676c-2.968,4.795-7.763,33.791-8.676,42.239
				c-0.913,8.448-0.457,19.864,0.685,22.375c1.141,2.512,12.329,23.745,13.014,26.942c0.685,3.196-7.078,47.262-7.078,47.262
				s74.203,42.239,77.856,44.294c3.653,2.055,29.453,13.014,29.453,13.014s6.621-15.526,4.338-32.421
				c-2.283-16.895-7.535-23.288-10.731-28.996c-3.196-5.708-12.558-32.878-13.242-37.216c-0.685-4.338-3.196-67.582-3.881-73.518
				c-0.685-5.936-4.11-16.895-4.11-16.895s-21.919-14.612-26.713-16.096C287.672,157.127,252.511,158.954,252.511,158.954z"/>
			<path style="fill:#F8CAC9;" d="M320.626,325.625c0,0,0.228-7.078,1.141-10.35c0.308-1.102,0.84-2.165,1.41-3.097
				c6.313-5.557,12.921-10.343,15.723-13.029c-3.954-9.151-11.133-30.249-11.729-34.028c-0.651-4.12-2.949-61.375-3.765-72.199
				c-7.88,0.399-19.98,5.759-19.98,5.759s-3.196,18.037-6.849,24.43c-3.653,6.393-18.494,14.156-22.375,14.156
				c-3.881,0-16.211-4.566-20.32-4.795c-4.11-0.228-6.621,0-12.101-0.457c-3.508-0.292-6.915-1.892-8.918-3.007
				c0.187,1.487,0.422,2.627,0.699,3.236c1.141,2.512,12.329,23.745,13.014,26.942l21.233,9.818c0,0-15.069-2.512-15.754-2.512
				c-0.685,0,1.142,3.882,1.142,3.882s3.425,10.503,2.74,18.722c-0.497,5.966-10.612,10.37-16.386,17.049
				c-0.031,0.179-0.053,0.303-0.053,0.303s34.673,19.737,57.783,32.884c4.168-3.852,9.602-9.162,13.924-14.355l11.02,6.434
				L320.626,325.625z"/>
			<g>
				<path style="fill:#FFF7F7;" d="M346.806,363.754c0,0-4.795,5.48-7.991,7.078c0,0,4.11-23.06-11.416-39.042
					C327.399,331.79,348.861,342.521,346.806,363.754z"/>
				<path style="fill:#F8CAC9;" d="M346.92,360.201c-0.24,0-0.437-0.192-0.442-0.433c-0.222-10.539-7.905-18.686-7.983-18.767
					c-0.169-0.177-0.163-0.457,0.014-0.626c0.176-0.172,0.456-0.162,0.625,0.013c0.08,0.084,7.999,8.47,8.229,19.361
					c0.005,0.244-0.189,0.446-0.433,0.452C346.926,360.201,346.923,360.201,346.92,360.201z"/>
			</g>
		</g>
		<g>
			<path style="fill:#FFF7F7;" d="M241.082,168.575l-0.554,11.513l-2.631,54.665c0,0-9.814,13.247-13.471,16.444
				c-1.298,1.144-5.521,4.07-10.404,7.349c-8.788,5.898-19.735,12.964-19.735,12.964s-18.721-6.618-17.577-10.275
				c1.144-3.645,28.535-25.339,28.535-25.339s0.236-9.13,9.827-28.771C224.662,187.496,241.082,168.575,241.082,168.575z"/>
			<path style="fill:#F8CAC9;" d="M213.469,243.194c-0.079,0-0.159-0.032-0.217-0.096c-2.534-2.758-6.155-5.259-6.191-5.284
				c-0.134-0.092-0.168-0.276-0.076-0.41c0.093-0.134,0.276-0.167,0.41-0.076c0.037,0.025,3.711,2.563,6.291,5.372
				c0.11,0.12,0.102,0.306-0.018,0.417C213.612,243.168,213.54,243.194,213.469,243.194z"/>
			<path style="fill:#F8CAC9;" d="M207.684,236.496c-0.141,0-0.266-0.102-0.29-0.246c-0.027-0.161,0.082-0.313,0.243-0.339
				c0.114-0.019,2.805-0.463,4.354-0.229c0.161,0.024,0.272,0.174,0.248,0.335c-0.025,0.161-0.181,0.269-0.335,0.248
				c-1.458-0.218-4.142,0.222-4.17,0.227C207.717,236.495,207.7,236.496,207.684,236.496z"/>
			<path style="fill:#F8CAC9;" d="M240.528,180.088l-2.631,54.665c0,0-9.814,13.247-13.471,16.444
				c-1.298,1.144-5.521,4.07-10.404,7.349c3.74-4.223,9.933-11.454,10.404-13.519c0.684-2.961,2.288-29.22,3.881-37.902
				C229.746,199.363,238.676,183.368,240.528,180.088z"/>
		</g>
		<g>
			<path style="fill:#EAADA9;" d="M235.159,269.916c0,0,6.507,1.142,8.562,2.283s8.562,9.475,9.704,10.046
				c1.141,0.571,8.067,1.75,8.067,1.75s2.892,2.816,3.691,4.528c0.799,1.712,1.027,7.649,1.027,7.649l-29.567-13.585
				L235.159,269.916z"/>
			<path style="fill:#FFF7F7;" d="M271.385,281.864l-9.894,2.131c0,0,3.501,5.936,3.653,9.133c0.152,3.196,0.457,5.632,0.457,5.632
				l12.633,1.218c0,0,2.306-3.049,1.218-7.763C277.169,282.321,271.385,281.864,271.385,281.864z"/>
			<path style="fill:#FFF7F7;" d="M306.242,259.946c0,0-4.262-41.858-2.816-61.265c1.446-19.407,10.427-23.212,15.754-23.973
				c5.327-0.761,15.069,17.656,15.373,35.313c0.304,17.657-0.609,30.899,0.609,35.313c1.218,4.414,2.435,17.657,2.131,21.614
				c-0.304,3.958-4.414,10.503-8.372,13.395c-3.958,2.892-17.048,15.678-24.049,17.048c-7.002,1.37-17.656,4.414-26.637,2.588
				c0,0,1.827-11.872-6.849-18.113c0,0,1.522-5.632,9.133-8.98C288.128,269.535,306.242,259.946,306.242,259.946z"/>
			<path style="fill:#F8CAC9;" d="M278.386,295.701c-0.236,0-0.433-0.187-0.441-0.425c-0.293-7.612-5.421-11.962-5.473-12.006
				c-0.187-0.156-0.213-0.434-0.057-0.622c0.155-0.189,0.435-0.214,0.623-0.059c0.223,0.186,5.483,4.632,5.792,12.652
				c0.01,0.244-0.181,0.45-0.424,0.46C278.398,295.701,278.392,295.701,278.386,295.701z"/>
			<path style="fill:#F8CAC9;" d="M317.658,266.934c-0.104,0-0.208-0.037-0.293-0.111c-5.03-4.439-9.825-5.829-9.873-5.842
				c-0.235-0.067-0.372-0.311-0.306-0.546c0.066-0.234,0.304-0.366,0.546-0.306c0.203,0.058,5.027,1.45,10.219,6.031
				c0.183,0.161,0.201,0.441,0.039,0.624C317.902,266.883,317.78,266.934,317.658,266.934z"/>
			<path style="fill:#F8CAC9;" d="M310.351,259.018c-0.191,0-0.367-0.124-0.424-0.317c-0.07-0.234,0.064-0.48,0.298-0.549
				c0.171-0.051,4.205-1.252,6.698-1.083c0.244,0.015,0.429,0.225,0.414,0.469c-0.016,0.243-0.237,0.441-0.469,0.413
				c-2.329-0.14-6.352,1.037-6.392,1.048C310.435,259.013,310.393,259.018,310.351,259.018z"/>
		</g>
		<g>
			<path style="fill:#59291E;" d="M293.151,149.288l-1.215-3.657c0,0-3.197,5.179-3.81,5.332c-0.602,0.153-4.105,0.153-4.105,0.153
				l-0.153-3.197l-3.197,3.35l-10.959,0.448l-17.353,2.442l-3.81,3.657l-2.123-6.099l-2.89,4.424c0,0-4.719-1.675-5.332-10.357
				c-0.613-8.67-11.419-46.879,15.984-64.691c0,0,2.229-0.389,5.603-0.295c4.164,0.118,10.074,0.991,15.701,4.258
				c10.204,5.934,17.506,25.575,18.874,40.945C295.735,141.372,293.151,149.288,293.151,149.288z"/>
			<path style="fill:#FFF7F7;" d="M287.442,166.263c-4.105,4.447-12.327,7.526-22.602,8.906
				c-10.275,1.368-14.958-4.223-14.958-5.945c0-1.109,0.873-5.886,1.474-9.095c0.319-1.722,0.578-2.996,0.578-2.996l26.719-9.142
				c0,0,1.71,0,4.341,1.026c0.212,0.083,0.448,0.201,0.696,0.366c2.89,1.734,8.257,7.656,8.776,9.225
				C293.033,160.329,291.559,161.804,287.442,166.263z"/>
			<path style="fill:#F8CAC9;" d="M282.653,151.765c0.106,0.342,0.448,6.96-2.973,9.472c-3.421,2.513-19.063,6.512-23.168,4.341
				c-2.595-1.368-4.282-3.822-5.155-5.45c0.319-1.722,0.578-2.996,0.578-2.996l26.719-9.142c0,0,1.71,0,4.341,1.026
				c0.212,0.083,0.448,0.201,0.696,0.366C282.853,150.585,282.57,151.517,282.653,151.765z"/>
			<path style="fill:#E1787F;" d="M281.579,152.614c-0.932,1.781-4.022,5.438-11.49,7.715c-6.488,1.97-10.334,1.18-11.891,0.637
				l-0.779-7.149l21.458-10.157L281.579,152.614z"/>
			<path style="fill:#331811;" d="M293.151,149.288c2.89-16.444-0.153-38.208-9.437-53.119
				c-9.284-14.923-22.826-13.849-22.826-13.849s-0.484-0.625-1.097-1.522c4.164,0.118,10.074,0.991,15.701,4.258
				c10.204,5.934,17.506,25.575,18.874,40.945C295.735,141.372,293.151,149.288,293.151,149.288z"/>
			<path style="fill:#59291E;" d="M224.775,105.295c-0.083,4.131-0.183,33.125,12.515,53.582c0,0-3.349-17.657-2.588-31.508
				c0.761-13.851-5.023-22.527-5.023-22.527S224.782,104.969,224.775,105.295z"/>
			<path style="fill:#331811;" d="M234.702,127.37c0.555-10.102-2.365-17.431-3.99-20.67c-2.549-0.989-4.524,0.184-4.686,5.449
				c-0.457,14.841,11.264,46.729,11.264,46.729S233.941,141.221,234.702,127.37z"/>
			<path style="fill:#EAADA9;" d="M228.614,121.586c0,0,5.632,12.634,5.936,16.591c0.304,3.958,1.979,9.742,5.632,13.243
				c3.653,3.501,17.048,8.828,19.331,9.285c2.283,0.457,9.589-4.414,14.612-9.742c5.023-5.327,5.936-11.568,7.002-20.092
				c1.065-8.524,3.653-23.288-8.067-29.377c-11.72-6.089-21.158-7.611-28.616-5.175c-7.458,2.435-12.633,2.892-14.46,9.894
				C228.157,113.214,228.614,121.586,228.614,121.586z"/>
			<path style="fill:#E1787F;" d="M278.996,121.738c0,0,2.169-5.023,5.366-2.626c3.196,2.397,2.055,12.672-4.452,15.297
				L278.996,121.738z"/>
			<path style="fill:#59291E;" d="M284.043,110.307c-3.349-27.422-18.863-36.082-33.054-29.514c0,0-7.154-0.457-13.242,2.74
				c-6.088,3.197-13.395,15.221-12.938,22.375c0.457,7.154,1.886,17.237,6.194,21.328c0,0-1.171-8.086,1.721-16.61
				c0,0,1.066,5.784,5.023,9.742l4.719-1.065l-1.218-4.414c0,0,1.979,5.175,14.308,3.957l-0.457-3.196l3.196,3.501
				c0,0,4.871,0.913,11.264,0c0,0-4.992-4.112-6.401-10.673c2.191,1.382,5.558,3.725,8.283,6.581
				c2.839,7.583,6.956,23.017,2.685,41.384C274.125,156.442,287.359,137.457,284.043,110.307z"/>
			<path style="fill:#F2F6FF;" d="M248.616,116.358c-2.828,0.102-5.678-1.07-7.615-3.133c-1.937-2.063-2.929-4.98-2.65-7.796
				C239.811,110.187,243.977,114.558,248.616,116.358z"/>
			<path style="fill:#F2F6FF;" d="M259.282,116.619c-4.139-2.575-6.402-7.85-5.416-12.624
				C254.946,108.389,256.977,112.727,259.282,116.619z"/>
			<path style="fill:#FFF7F7;" d="M277.004,130.005c-1.267-9.103-3.447-18.08-6.496-26.75
				C276.147,111.16,278.244,120.374,277.004,130.005z"/>
			<path style="fill:#FFF7F7;" d="M244.235,82.873c-5.388,1.961-10.085,5.769-13.116,10.636c-3.031,4.867-4.378,10.762-3.761,16.462
				c1.112-5.845,4.009-10.839,8.123-15.139c-0.343,3.335-0.404,6.824-0.1,10.163C236.517,96.854,239.422,89.538,244.235,82.873z"/>
			<path style="fill:#E1787F;" d="M249.657,144.798c-0.104-0.136,0.856-0.171,1.941-0.171c1.085,0,2.683-0.228,2.683-0.228
				s-1.142,1.199-2.283,1.37C250.856,145.939,250.399,145.768,249.657,144.798z"/>
			<g>
				<path style="fill:#090B24;" d="M259.827,130.869c0.371,1.221,0.208,2.353-0.365,2.527c-0.573,0.174-1.339-0.675-1.71-1.896
					c-0.371-1.222-0.208-2.353,0.365-2.527C258.69,128.799,259.456,129.647,259.827,130.869z"/>
				<path style="fill:#090B24;" d="M262.639,127.341c-0.043-0.082-0.154-0.096-0.224-0.043c-0.042,0.033-0.053,0.077-0.068,0.125
					c-0.008,0.023-0.016,0.046-0.025,0.069c-0.004,0.011-0.009,0.022-0.013,0.033c-0.002,0.006-0.006,0.013-0.007,0.016
					c-0.022,0.05-0.046,0.1-0.071,0.149c-0.027,0.052-0.055,0.104-0.085,0.154c-0.013,0.022-0.027,0.044-0.041,0.065
					c-0.001,0.002-0.003,0.004-0.004,0.006c-0.001,0-0.002,0-0.003,0.001c-0.502-0.288-1.154-0.232-1.709-0.202
					c-0.697,0.038-1.391,0.1-2.078,0.228c-1.361,0.254-2.67,0.752-3.565,1.854c-0.011,0.014,0.007,0.032,0.02,0.02
					c0.933-0.926,2.244-1.367,3.516-1.578c0.629-0.104,1.269-0.159,1.906-0.195c0.577-0.033,1.326-0.152,1.831,0.19
					c0.043,0.029,0.086,0.033,0.122,0.022c0.05,0.014,0.102,0.017,0.148-0.011c0.046-0.027,0.073-0.079,0.084-0.134
					c0.043-0.066,0.081-0.136,0.115-0.207c0.051-0.108,0.098-0.218,0.135-0.331C262.647,127.497,262.678,127.415,262.639,127.341z"
					/>
			</g>
			<g>
				<path style="fill:#090B24;" d="M244.278,133.201c0.355,1.168,0.199,2.249-0.349,2.416c-0.548,0.167-1.28-0.645-1.635-1.812
					c-0.355-1.168-0.199-2.249,0.349-2.416C243.191,131.222,243.923,132.033,244.278,133.201z"/>
				<path style="fill:#090B24;" d="M244.32,130.533c-0.327-0.047-0.656-0.078-0.987-0.083c-0.519-0.008-1.041,0.052-1.553,0.132
					c-0.445,0.07-0.892,0.162-1.305,0.346c-0.189,0.084-0.522,0.262-0.667,0.489c-0.009-0.006-0.017-0.012-0.025-0.019
					c-0.04-0.033-0.08-0.067-0.118-0.103c-0.076-0.072-0.16-0.136-0.24-0.203c-0.054-0.045-0.11-0.051-0.173-0.022
					c0.008-0.003,0.017-0.007,0.025-0.011l0.095,0.012c-0.031-0.019-0.061-0.038-0.092-0.056c-0.083-0.049-0.182,0.049-0.132,0.132
					c0.012,0.02,0.024,0.041,0.036,0.062c0.004,0.029,0.017,0.057,0.038,0.085c-0.025-0.032,0.004,0.005,0.008,0.011
					c0.014,0.018,0.028,0.037,0.042,0.055c0.017,0.022,0.034,0.044,0.051,0.065c0.034,0.042,0.068,0.081,0.108,0.117
					c0.087,0.078,0.179,0.151,0.281,0.209c0.075,0.043,0.185,0.02,0.227-0.059c0.009-0.016,0.003-0.034,0.007-0.051
					c0.082-0.07,0.157-0.151,0.244-0.213c0.161-0.114,0.336-0.207,0.52-0.277c0.399-0.153,0.824-0.229,1.245-0.29
					c0.492-0.071,0.981-0.153,1.479-0.158c0.303-0.003,0.606,0.015,0.907,0.045c0.288,0.029,0.62,0.106,0.905,0.061
					c0.012-0.002,0.012-0.02,0.003-0.025C244.994,130.623,244.615,130.575,244.32,130.533z"/>
			</g>
			<path style="fill:#090B24;" d="M260.799,122.714c-1.347-0.662-2.993-0.631-4.417-0.25c-0.725,0.194-1.428,0.496-2.064,0.896
				c-0.624,0.392-1.282,0.896-1.612,1.571c-0.043,0.088,0.057,0.158,0.13,0.1c0.567-0.442,1.057-0.965,1.665-1.359
				c0.608-0.394,1.271-0.696,1.967-0.896c1.432-0.412,2.856-0.315,4.285,0.047C260.816,122.839,260.862,122.744,260.799,122.714z"/>
			<path style="fill:#090B24;" d="M242.935,125.248c-0.652-0.158-1.336-0.21-2.002-0.264c-1.136-0.093-2.463-0.073-3.405,0.664
				c-0.039,0.03,0.011,0.085,0.05,0.065c1.096-0.553,2.217-0.529,3.41-0.397c0.621,0.069,1.237,0.158,1.848,0.295
				c0.272,0.061,0.541,0.128,0.804,0.219c0.225,0.078,0.48,0.226,0.72,0.168c0.018-0.004,0.033-0.027,0.026-0.045
				C244.207,125.514,243.344,125.347,242.935,125.248z"/>
			<path style="fill:#DB2852;" d="M260.934,148.514c-0.233,0.045-0.405,0.427-0.555,0.599c-0.232,0.266-0.498,0.502-0.783,0.709
				c-0.596,0.435-1.271,0.762-1.968,1c-1.308,0.448-2.834,0.644-4.203,0.363c-0.005-0.001-0.009,0.006-0.004,0.008
				c1.34,0.637,2.974,0.37,4.336-0.086c0.737-0.247,1.455-0.585,2.085-1.044c0.295-0.216,0.574-0.456,0.816-0.731
				c0.154-0.176,0.478-0.506,0.388-0.755C261.03,148.529,260.986,148.504,260.934,148.514z"/>
			<path style="fill:#F8CAC9;" d="M261.84,175.755c-0.92,0-1.457-0.033-1.483-0.035c-0.244-0.016-0.428-0.227-0.411-0.471
				c0.016-0.244,0.246-0.419,0.47-0.412c0.118,0.008,11.842,0.721,20.858-4.845c0.752-0.464,1.444-0.907,2.081-1.331
				c0.204-0.134,0.478-0.08,0.614,0.124c0.135,0.203,0.079,0.478-0.124,0.614c-0.645,0.428-1.345,0.878-2.106,1.347
				C274.404,175.274,265.348,175.755,261.84,175.755z"/>
			<path style="fill:#F8CAC9;" d="M287.908,166.258c-0.124,0-0.247-0.052-0.335-0.153c-0.159-0.184-0.139-0.464,0.046-0.624
				c2.712-2.345,2.923-3.489,2.924-3.5c0.038-0.234,0.263-0.395,0.492-0.377c0.237,0.029,0.409,0.233,0.388,0.47
				c-0.012,0.142-0.208,1.467-3.226,4.076C288.114,166.223,288.011,166.258,287.908,166.258z"/>
			<path style="fill:#F8CAC9;" d="M256.621,175.15c-0.024,0-0.048-0.002-0.072-0.006c-3.454-0.563-6.319-4.12-6.439-4.271
				c-0.152-0.191-0.12-0.469,0.071-0.622c0.191-0.15,0.469-0.121,0.621,0.071c0.027,0.034,2.775,3.441,5.89,3.948
				c0.241,0.039,0.404,0.267,0.365,0.508C257.022,174.996,256.834,175.15,256.621,175.15z"/>
		</g>
		<g>
			<path style="fill:#EAADA9;" d="M146.062,250.454l-5.191,2.064l-2.689,1.073c0,0-1.77-4.058-0.519-5.485
				c1.262-1.427,3.94-2.395,5.367-1.534c0.531,0.318,1.097,0.944,1.593,1.604C145.437,249.274,146.062,250.454,146.062,250.454z"/>
			<path style="fill:#E1787F;" d="M146.062,250.454l-5.191,2.064c-0.484-1.392-1.073-3.586-0.236-4.235
				c0.932-0.719,2.489-0.967,3.987-0.106C145.437,249.274,146.062,250.454,146.062,250.454z"/>
			<polygon style="fill:#AAA5BA;" points="231.658,262.229 245.319,284.3 243.778,286.583 229.679,266.643 			"/>
			<path style="fill:#FFF7F7;" d="M178.08,259.946c0,0-0.571-12.177-15.868-20.511l1.484,14.156L178.08,259.946z"/>
			<path style="fill:#FFF7F7;" d="M135.46,255.608l4.871-5.403c0,0,12.938-2.435,21.31,0.761c8.372,3.196,16.439,8.981,16.439,8.981
				s17.504-6.089,31.355-3.197c13.851,2.892,22.223,5.48,22.223,5.48l-1.979,4.414l-58.602-1.826L135.46,255.608z"/>
			<path style="fill:#FEA3A7;" d="M134.547,256.293l0.913-0.685l38.129,5.175c0,0,1.294,3.729,5.175,2.968
				c3.881-0.761,5.327-2.207,5.327-2.207l46.653,4.414l13.775,20.929l-0.381,0.761L134.547,256.293z"/>
			<path style="fill:#FE656D;" d="M134.547,256.293l38.205,5.175c0,0,3.044,6.089,11.568,1.065l45.968,4.262l13.851,20.853
				l-88.13-5.479L134.547,256.293z"/>
			<path style="fill:#EAADA9;" d="M141.092,274.482c0,0-0.761,1.903-0.228,2.74c0.533,0.837,1.218,1.903,2.283,2.435
				c1.065,0.533,5.175,0.457,7.23,0.304c2.055-0.152,4.719-0.533,4.795-0.761c0.076-0.228-1.674-3.044-3.12-3.349
				C150.605,275.548,141.092,274.482,141.092,274.482z"/>
			<path style="fill:#EAADA9;" d="M139.266,269.688c0,0-1.142,1.903-0.837,2.968c0.304,1.065,2.588,2.816,3.577,3.272
				c0.989,0.457,5.784,0.38,7.687,0.38c1.903,0,4.186,0.609,4.414,0.076c0.228-0.533,0.228-1.903-0.38-2.587
				c-0.609-0.685-1.218-1.294-2.512-1.446C149.921,272.199,139.266,269.688,139.266,269.688z"/>
			<path style="fill:#EAADA9;" d="M137.972,269.764c0,0-1.75-2.055-1.37-3.12c0.38-1.065,1.446-2.892,2.359-2.892
				c0.913,0,6.317,3.653,8.676,4.262c2.359,0.609,5.556,1.522,5.936,2.131c0.38,0.609,0.913,2.131-0.381,2.359
				c-1.294,0.228-7.687,0.152-9.285-0.228C142.31,271.895,137.972,269.764,137.972,269.764z"/>
			<path style="fill:#E1787F;" d="M149.769,273.098c-0.007,0-0.014,0-0.021,0c-0.038-0.002-3.799-0.175-5.559-0.345
				c-1.868-0.181-3.408-1.291-3.472-1.339c-0.197-0.144-0.24-0.421-0.096-0.617c0.143-0.198,0.42-0.243,0.617-0.097
				c0.014,0.009,1.414,1.015,3.036,1.173c1.738,0.167,5.477,0.339,5.514,0.34c0.244,0.011,0.433,0.219,0.422,0.462
				C150.199,272.913,150.004,273.098,149.769,273.098z"/>
			<path style="fill:#E1787F;" d="M150.796,276.751c-0.001,0-0.002,0-0.004,0l-7.535-0.058c-0.244-0.002-0.441-0.202-0.439-0.446
				c0.002-0.243,0.199-0.439,0.442-0.439c0.001,0,0.002,0,0.003,0l7.535,0.058c0.244,0.002,0.441,0.202,0.439,0.446
				C151.236,276.555,151.039,276.751,150.796,276.751z"/>
		</g>
		<g>
			<path style="fill:#8C383C;" d="M272.307,383.033c0,0-9.522-3.069-15.458-3.297c-5.936-0.228-13.242,0.228-18.265-1.142
				c-5.023-1.37-14.496-7.373-15.159-14.841c-0.663-7.467,2.83-17.473,2.83-17.473l49.317,22.724c0,0,6.655,4.372,7.763,5.936
				c1.107,1.564,2.547,4.941,2.547,4.941S278.404,383.134,272.307,383.033z"/>
			<g>
				<path style="fill:#63A69B;" d="M288.889,380.345c0,0-22.223,4.262-49.316-9.133c-12.973-6.414-85.543-91.022-83.716-94.067
					c1.827-3.044,17.048-10.35,21.31-10.046c4.262,0.304,31.356,16.439,45.663,26.485c14.308,10.046,65.755,55.709,69.713,63.016
					C292.543,356.6,294.369,375.17,288.889,380.345z"/>
				<path style="fill:#FE656D;" d="M64.347,442.021c0,0-0.957,1.942,0,2.426c0.957,0.483,6.649,4.536,14.088,3.139
					c7.439-1.397,15.344-2.066,19.032-4.279c3.688-2.213,16.081-13.131,20.95-16.082c4.869-2.951,11.36-9.442,11.508-10.77
					c0.147-1.328-0.738-3.983-2.656-4.131c-1.918-0.147-29.95,9.295-32.458,10.77c-2.508,1.475-13.131,9.442-16.524,11.656
					C74.894,436.963,64.347,442.021,64.347,442.021z"/>
				<path style="fill:#63A69B;" d="M155.857,277.146c0,0-14.764,28.387-19.559,36.379c-4.795,7.991-33.106,83.564-36.074,89.957
					c-2.968,6.393-18.95,20.32-24.658,24.887c-2.002,1.601-3.975,3.371-5.704,5.103c-5.272,2.424-5.563,6.281-5.712,7.911
					c-0.228,2.512,11.416,4.338,11.416,4.338c4.795,0.457,11.644-1.827,19.179-6.165c7.534-4.338,12.329-8.676,18.722-11.872
					c6.393-3.196,15.297-11.416,14.841-14.612c-0.457-3.196-4.362-9.092-4.362-11.146c0-2.055,22.177-26.169,46.784-63.727
					c4.206-6.42,12.831-35.811,8.265-43.851C175.654,288.466,155.857,277.146,155.857,277.146z"/>
				<path style="fill:#7ED2C4;" d="M168,278.158c7.627-4.162,16.867-4.176,25.429-2.698c0.343,0.059,0.684,0.133,1.026,0.197
					c-8.325-4.816-15.299-8.414-17.289-8.556c-4.262-0.304-19.483,7.002-21.31,10.046c-0.296,0.493,1.37,3.138,4.411,7.234
					C162.495,281.913,165.032,279.777,168,278.158z"/>
				<path style="fill:#7ED2C4;" d="M155.857,277.146c0,0-14.764,28.387-19.559,36.379c-4.795,7.991-33.106,83.564-36.074,89.957
					c-2.968,6.393-18.95,20.32-24.658,24.887c-2.002,1.601-3.975,3.371-5.704,5.103c-5.272,2.424-5.563,6.281-5.712,7.911
					c-0.075,0.82,1.118,1.566,2.755,2.2c0.003-1.703,0.406-3.406,1.211-4.908c1.608-3.002,4.769-5.115,8.157-5.453
					c25.119-18.894,28.334-27.633,41.705-56.952c8.158-17.888,16.234-43.025,26.836-63.379c4.275-8.207,11.008-21.798,18.705-31.645
					C159.294,278.818,155.857,277.146,155.857,277.146z"/>
				<path style="fill:#FE656D;" d="M69.862,433.472c0,0,2.735-1.07,6.312,1.213c3.577,2.283,6.772,7.303,7.001,10.044
					c0,0,1.979,0.078,3.882-0.684c1.903-0.761,15.83-8.752,15.83-8.752s-6.26-14.575-18.504-14.479
					C84.384,420.814,71.237,430.508,69.862,433.472z"/>
				<path style="fill:#B5484E;" d="M99.329,429.391c-5.343,4.554-11.202,8.5-17.449,11.703c0.737,1.351,1.213,2.643,1.296,3.635
					c0,0,1.979,0.078,3.882-0.683c1.903-0.761,15.83-8.752,15.83-8.752S101.693,432.514,99.329,429.391z"/>
			</g>
		</g>
		<g>
			<g>
				<g>
					<path style="fill:#FE656D;" d="M145.846,431.447c0,0,1.314,2.418,0,4.041c-1.314,1.623-14.593,7.524-19.462,10.918
						c-4.869,3.393-14.536,11.508-23.497,13.278c-8.961,1.77-20.026-1.802-20.911-2.598c-0.885-0.795-1.475-2.566,0-3.894
						c1.476-1.328,38.655-16.819,45.146-18.442C133.614,433.127,145.846,431.447,145.846,431.447z"/>
					<path style="fill:#7ED2C4;" d="M338.827,370.801c0,0.023-0.012,0.035-0.012,0.035s-0.012,0.012-0.024,0.023
						c-0.495,0.401-7.68,6.169-18.65,9.614c-0.649,0.189-1.309,0.377-1.994,0.566c-0.897,0.248-1.828,0.472-2.772,0.684
						c-0.696,0.165-1.416,0.318-2.147,0.46c-0.071,0.012-0.13,0.024-0.201,0.035c-3.763,0.672-7.833,0.979-12.115,0.708
						c-1.805-0.118-3.551-0.307-5.238-0.566c-4.766-0.731-9.119-2.041-13.354-3.881c-2.241-0.979-4.459-2.1-6.688-3.385
						c-10.027-5.721-20.255-14.392-34.54-25.492c-25.574-19.865-47.492-52.293-49.769-56.623
						c-2.288-4.341,0.908-23.746,3.421-25.799c2.513-2.064,10.05-3.657,12.787-3.657c2.737,0,37.442,17.128,50.005,23.97
						c6.323,3.456,21.08,12.021,35.637,21.01c0,0,0.012,0,0.023,0.012c14.309,8.836,28.429,18.072,34.198,23.274
						C342.59,347.432,338.98,369.845,338.827,370.801z"/>
					<path style="fill:#99FFEE;" d="M207.533,263.524c-2.737,0-10.275,1.593-12.787,3.657c-1.185,0.968-2.522,5.796-3.364,11.083
						c4.084-5.253,9.616-9.384,16.102-10.469c4.445-0.744,8.892-0.024,13.247,1.269
						C213.822,265.821,208.534,263.524,207.533,263.524z"/>
					<path style="fill:#72BDB0;" d="M304.358,373.797c0,0-4.282,5.249-8.682,8.564c-4.766-0.731-9.119-2.041-13.354-3.881
						c-2.241-0.979-4.459-2.1-6.688-3.385c4.919-0.873,14.061-4.247,18.426-17.046c6.04-17.648-0.59-48.177-0.873-49.498
						c0.566,1.286,14.144,32.31,15.029,40.131C309.136,356.68,304.358,373.797,304.358,373.797z"/>
					<path style="fill:#7ED2C4;" d="M194.747,267.176c0,0-13.927,10.274-16.667,13.927c-2.74,3.653-41.402,102.895-45.055,111.115
						c-3.653,8.219-16.743,29.529-22.527,35.617c-5.784,6.088-27.094,19.179-28.007,21.31c-0.913,2.131-2.131,4.566-0.304,5.784
						c1.827,1.218,10.655,3.958,21.31,2.435c10.655-1.522,17.352-12.177,25.267-15.221c7.915-3.044,12.481-4.262,15.221-7.915
						c2.74-3.653,3.653-5.784,2.74-10.046c-0.913-4.262-1.218-7.915-1.218-7.915s21.186-25.705,31.152-38.6
						c20.371-26.356,33.69-58.815,36.125-74.646C215.219,287.192,208.979,270.905,194.747,267.176z"/>
					<g>
						<path style="fill:#99FFEE;" d="M194.747,267.176c0,0-13.927,10.274-16.667,13.927c-2.74,3.653-41.402,102.895-45.055,111.114
							c-3.653,8.219-16.743,29.529-22.527,35.618c-5.784,6.088-27.094,19.179-28.007,21.31c-0.864,2.014-1.995,4.299-0.574,5.572
							c0.237-1.02,0.594-2.01,1.089-2.938c2.372-4.448,8.213-8.094,13.977-6.622c39.972-37.171,68.573-85.443,82.942-138.111
							c2.232-8.182,4.156-16.574,8.28-23.985c3.011-5.411,7.448-10.302,12.877-13.099
							C199.185,268.737,197.075,267.786,194.747,267.176z"/>
					</g>
					<path style="fill:#72BDB0;" d="M134.585,421.847c-0.192,0-0.369-0.126-0.425-0.319c-0.068-0.235,0.067-0.48,0.302-0.548
						c4.22-1.221,8.285-3.911,8.326-3.939c0.203-0.132,0.478-0.079,0.613,0.123c0.135,0.204,0.081,0.478-0.123,0.614
						c-0.17,0.113-4.216,2.791-8.57,4.052C134.667,421.841,134.625,421.847,134.585,421.847z"/>
					<path style="fill:#72BDB0;" d="M142.12,415.111c-0.03,0-0.06-0.003-0.09-0.009l-3.311-0.684
						c-0.24-0.05-0.393-0.283-0.344-0.523c0.049-0.24,0.284-0.391,0.522-0.343l3.311,0.684c0.24,0.05,0.393,0.283,0.344,0.523
						C142.509,414.967,142.325,415.111,142.12,415.111z"/>
					<path style="fill:#72BDB0;" d="M210.348,312.89c-0.054,0-0.107-0.009-0.16-0.03c-0.228-0.089-0.341-0.344-0.252-0.572
						c0.068-0.176,6.748-17.725,0.501-29.594c-0.114-0.217-0.031-0.484,0.185-0.598c0.216-0.115,0.484-0.03,0.598,0.186
						c6.436,12.228-0.39,30.146-0.46,30.326C210.692,312.783,210.525,312.89,210.348,312.89z"/>
					<path style="fill:#72BDB0;" d="M221.839,299.157c-0.064,0-0.13-0.014-0.192-0.044c-0.22-0.107-0.312-0.372-0.205-0.592
						c0.395-0.813,0.775-1.661,1.132-2.518c0.093-0.227,0.351-0.333,0.578-0.24c0.225,0.094,0.332,0.352,0.239,0.578
						c-0.362,0.873-0.751,1.737-1.153,2.567C222.161,299.065,222.003,299.157,221.839,299.157z"/>
					<path style="fill:#72BDB0;" d="M213.299,310.923c-0.131,0-0.26-0.058-0.347-0.167c-0.152-0.192-0.119-0.47,0.072-0.622
						c0.03-0.023,3.025-2.432,6.184-7.539c0.129-0.207,0.402-0.27,0.609-0.144c0.208,0.129,0.272,0.402,0.144,0.609
						c-3.249,5.251-6.261,7.666-6.387,7.767C213.492,310.892,213.395,310.923,213.299,310.923z"/>
				</g>
				<path style="fill:#FE656D;" d="M89.319,443.711c0,0,4.892-1.111,9.991,2.999c5.099,4.11,5.672,10.377,5.672,10.377
					s6.885-1.092,10.691-4.364c3.805-3.273,6.317-5.556,6.317-5.556s-2.131-8.98-8.067-12.71c-5.936-3.729-8.268-2.429-8.268-2.429
					S90.363,440.636,89.319,443.711z"/>
				<path style="fill:#B5484E;" d="M104.982,457.086c0,0,6.885-1.092,10.691-4.364c3.805-3.273,6.317-5.556,6.317-5.556
					s-0.827-3.48-2.882-7.006c-4.527,4.778-9.823,8.825-15.619,11.947C104.766,454.811,104.982,457.086,104.982,457.086z"/>
			</g>
			<path style="fill:#FE656D;" d="M338.827,370.801c0,0.023-0.012,0.035-0.012,0.035s-0.012,0.012-0.024,0.023
				c-0.413,0.401-6.217,5.887-18.65,9.614c-2.112,0.637-4.412,1.215-6.913,1.71c-0.071,0.012-0.13,0.024-0.201,0.035
				c-0.13,0.035-0.259,0.059-0.389,0.083c-18.19,3.468-40.332,0.731-40.332,0.731c3.209-0.189,6.712-1.781,10.015-4.553
				c6.747-5.627,14.939-9.931,15.852-26.142c1.145-20.327-4.999-43.834-4.999-43.834s0.012,0,0.023,0.012
				c14.309,8.836,28.429,18.072,34.198,23.274C342.59,347.432,338.98,369.845,338.827,370.801z"/>
		</g>
	</g>
	<g>
		<path style="fill:#FFF7F7;" d="M278.084,417.523l-1.388,2.776l22.208,28.454c0,0,39.003-10.826,47.331-17.211
			c0,0,20.785-2.151,41.189-10.618l-1.041-1.509L278.084,417.523z"/>
		<path style="fill:#7ED2C4;" d="M276.557,417.176l37.06-12.908c0,0,2.498-2.707,5.829-2.498c3.331,0.208,4.164,1.457,4.164,1.457
			l26.441-0.833l36.851,17.072l-35.186,9.577c0,0-4.372-2.082-6.454-1.249s-4.372,2.915-4.372,2.915l-41.432,15.615L276.557,417.176
			z"/>
		<polygon style="fill:#72BDB0;" points="318.104,439.297 340.891,430.709 314.065,404.905 		"/>
		<polygon style="fill:#72BDB0;" points="323.61,403.226 351.717,429.043 357.447,427.483 		"/>
	</g>
	<g>
		
			<ellipse transform="matrix(0.9273 -0.3742 0.3742 0.9273 -4.4065 130.4577)" style="fill:#EBEBFF;" cx="333.764" cy="76.577" rx="36.964" ry="36.965"/>
		<g>
			<g>
				<path style="fill:#FFF7F7;" d="M355.637,80.081c-1.077,1.261-2.507,2.081-4.18,2.549c-1.272,0.353-2.688,0.507-4.184,0.513
					c-0.012,0.006-0.021,0.003-0.03,0c-9.009-0.014-21.025-5.615-24.383-6.748c-0.252-0.085-0.498-0.188-0.741-0.3
					c-4.291-1.96-7.642-7.834-7.642-7.834s-2.515-2.143,2.705-7.239c5.211-5.099,12.127-9.101,21.806-5.963
					c1.284,0.413,2.643,1.022,4.013,1.776C351.973,61.768,361.578,73.113,355.637,80.081z"/>
				<path style="fill:#F8CAC9;" d="M355.637,80.081c-1.077,1.261-2.507,2.081-4.18,2.549c-1.398,0.19-2.852,0.371-4.184,0.513
					c-0.012,0.006-0.021,0.003-0.03,0c-9.009-0.014-21.025-5.615-24.383-6.748c-0.252-0.085-0.498-0.188-0.741-0.3
					c-1.876-2.669-2.958-5.611-2.958-5.611c0.391,0.001,19.674,3.023,23.341-1.304c2.891-3.426,1.288-9.813,0.498-12.345
					C351.973,61.768,361.578,73.113,355.637,80.081z"/>
				<path style="fill:#FE656D;" d="M309.903,88.707c0.332-4.039,0.663-8.078,0.995-12.117c0.222-2.707,0.519-5.42,0.668-8.132
					c0.069-1.25-0.336-2.885,0.872-3.627c1.578-0.97,3.769,0.603,4.238,2.095c1.084-1.634,3.25-2.465,5.149-1.974
					c1.898,0.491,3.391,2.268,3.546,4.223c1.359-1.433,3.628-1.915,5.452-1.158c1.825,0.757,3.086,2.703,3.032,4.677
					c0.945-1.512,2.906-2.31,4.638-1.887c1.732,0.423,3.104,2.036,3.245,3.813c1.122-1.792,3.392-2.786,5.47-2.395
					c2.078,0.391,3.832,2.142,4.226,4.219c0.775-0.854,2.239-0.958,3.127-0.221c0.888,0.737,1.056,2.195,0.359,3.114
					c0.096-1.187,1.516-2.057,2.616-1.603c2.693,1.11-0.613,4.776-1.472,6.325c-1.354,2.442-2.708,4.883-4.062,7.325
					c-1.322,2.384-2.644,4.767-3.966,7.151c-0.194,0.35-1.376,3.167-1.785,3.219c0,0-8.377,1.053-20.841-3.414
					C312.946,93.874,309.903,88.707,309.903,88.707z"/>
				<path style="fill:#B5484E;" d="M348.037,98.536c1.322-2.384,2.644-4.767,3.966-7.151c1.354-2.442,2.708-4.883,4.062-7.325
					c0.561-1.012,2.157-2.924,2.452-4.44c-0.451-0.744-1.453-0.665-2.001-0.615c-1.317,0.119-2.4,0.688-3.033,1.849
					c0.534-0.932,0.137-2.271-0.817-2.763c-0.954-0.492-2.294-0.523-2.743,0.452c0.228-1.365-0.532-2.789-1.702-3.528
					c-1.17-0.739-2.672-0.842-4.004-0.464c-1.331,0.377-2.801,1.27-3.783,2.246c-0.025-1.662-1.22-3.241-2.813-3.717
					c-1.593-0.476-3.458,0.188-4.391,1.564c-0.437,6.979-4.414,13.412-8.927,18.754c-0.965,1.143-1.987,2.23-3.04,3.288
					c1.251,0.555,2.626,1.11,4.146,1.655c12.464,4.467,20.841,3.414,20.841,3.414C346.661,101.703,347.842,98.886,348.037,98.536z"
					/>
				<g>
					<path style="fill:#5F1919;" d="M344.591,49.864c0,0,5.159-3.498,7.833-3.371l0.578,0.874c0,0-3.197-0.303-8.151,2.876
						L344.591,49.864z"/>
					<path style="fill:#FE656D;" d="M346.875,55.455c-0.964,2.854-4.059,4.387-6.913,3.423c-2.854-0.964-4.387-4.059-3.423-6.913
						c0.964-2.854,4.059-4.387,6.913-3.423C346.306,49.505,347.839,52.6,346.875,55.455z"/>
					<path style="fill:#B5484E;" d="M336.428,55.073c0.446,1.722,1.723,3.194,3.534,3.805c2.854,0.964,5.949-0.569,6.913-3.423
						c0.563-1.669,0.269-3.417-0.64-4.776c-0.527,2.336-2.225,4.445-4.536,5.141C339.936,56.352,338.011,56.004,336.428,55.073z"/>
				</g>
			</g>
		</g>
	</g>
	<g>
		<circle style="fill:#EBEBFF;" cx="113.833" cy="198.213" r="36.965"/>
		<g>
			<g>
				<path style="fill:#F8CAC9;" d="M136.965,201.605l19.144,4.339c0,0,7.915,3.358,10.662,9.488l-10.662-0.575L136.965,201.605z"/>
				<path style="fill:#DEA4A4;" d="M72.504,177.154c0,0,22.558,5.994,34.231,13.093c11.673,7.098,13.724,13.408,13.724,13.408
					l-20.034,1.893L72.504,177.154z"/>
				<path style="fill:#F8CAC9;" d="M101.687,203.814c0,0,4.417-17.825-1.577-34.073l33.126,32.496L101.687,203.814z"/>
				<path style="fill:#FFF7F7;" d="M60.831,179.836c0,0,3.155-3.786,11.673-2.682c8.518,1.104,23.189,9.938,29.183,26.659
					c0,0,26.343-6.31,37.543-1.42c11.2,4.89,16.879,12.462,16.879,12.462l-50.952-5.837c0,0-0.158,1.893-1.972,2.445
					c-1.814,0.552-5.363,1.025-7.256-0.316c-1.893-1.341-2.209-5.285-2.209-5.285L60.831,179.836z"/>
				<path style="fill:#63A69B;" d="M60.2,180.625l32.969,25.555c0,0-1.182,5.106,4.996,6.398c4.785,1.001,7.308-2.139,7.308-2.139
					l61.994,6.152l-0.158-1.104l-62.152-6.467c0,0-2.84,3.944-7.572,2.208c-4.732-1.735-3.313-5.679-3.313-5.679l-33.442-25.712
					L60.2,180.625z"/>
			</g>
		</g>
	</g>
	<g>
		<circle style="fill:#EBEBFF;" cx="158.746" cy="103.17" r="36.965"/>
		<g>
			<g>
				<path style="fill:#59291E;" d="M178.738,119.778c-3.938-5.914-12.023-11.804-19.29-12.082
					c-8.215-0.313-16.707,2.302-22.626,8.008c-2.529,2.438-4.994,6.613-6.459,11.141c6.781,8.12,16.976,13.288,28.382,13.288
					c8.84,0,16.952-3.107,23.312-8.283c0.242-4.154-0.958-8.491-3.266-11.991C178.774,119.832,178.756,119.805,178.738,119.778z"/>
				<path style="fill:#331811;" d="M178.738,119.778c-3.938-5.914-12.023-11.804-19.29-12.082
					c-6.579-0.251-13.333,1.382-18.803,4.971c0.458,1.95,1.17,3.84,2.119,5.591c3.8,7.01,10.92,11.853,18.591,14.03
					c5.98,1.697,12.275,1.897,18.477,1.232c0.762-0.531,1.506-1.085,2.225-1.67c0.242-4.154-0.958-8.491-3.266-11.991
					C178.774,119.832,178.756,119.805,178.738,119.778z"/>
			</g>
			<g>
				<g>
					<path style="fill:#59291E;" d="M166.233,85.776c0,0-1.823-5.479,2.859-11.564c4.682-6.085,8.997-6.316,11.677-6.024
						c0,0-0.963,1.602,0.383,5.328c1.346,3.726,3.24,13.377-1.681,17.024C174.549,94.187,166.233,85.776,166.233,85.776z"/>
					<path style="fill:#FE656D;" d="M176.835,90.916c-4.464,2.554-6.961-0.166-6.961-0.166s-0.118-2.709,0.235-6.025
						c0.202-1.79,0.54-3.774,1.108-5.574c0.414-1.319,0.958-2.548,1.666-3.566c3.467-4.964,5.515-4.978,5.515-4.978
						s0.66,3.05,1.798,6.085C181.333,79.713,181.313,88.359,176.835,90.916z"/>
					<path style="fill:#FFF7F7;" d="M176.128,80.504c0.694,0.795,2.94,2.118,2.989,2.392c0.047,0.26-2.445-0.382-2.445-0.382
						s1.565,1.077,1.675,2.713c0.107,1.622-0.396,1.896-0.396,1.896l-1.834-2.104c0,0,0.977,2.611-0.234,3.112
						c-1.214,0.486-4.969-1.287-4.969-1.287s-0.421-0.929-0.804-2.119c0.202-1.79,0.54-3.774,1.108-5.574
						c1.213-0.967,2.837-2.164,3.938-2.573c0,0-0.508,0.247-0.098,1.503c0.411,1.27,3.358,0.897,3.358,0.897
						S175.437,79.723,176.128,80.504z"/>
					<path style="fill:#59291E;" d="M150.475,88.769c0,0-0.194-5.771-6.698-9.85c-6.504-4.08-10.631-2.797-13.043-1.592
						c0,0,1.46,1.167,1.492,5.129c0.032,3.962,1.61,13.669,7.491,15.38C145.599,99.545,150.475,88.769,150.475,88.769z"/>
					<path style="fill:#FE656D;" d="M142.318,97.272c5.074,0.844,6.47-2.574,6.47-2.574s-0.831-2.581-2.314-5.568
						c-0.812-1.608-1.818-3.352-2.976-4.841c-0.846-1.093-1.783-2.057-2.801-2.765c-4.975-3.45-6.901-2.752-6.901-2.752
						s0.441,3.089,0.428,6.331C134.208,88.329,137.231,96.43,142.318,97.272z"/>
					<path style="fill:#FFF7F7;" d="M139.364,87.263c-0.375,0.987-2.021,3.007-1.972,3.282c0.047,0.26,2.16-1.208,2.16-1.208
						s-1.093,1.554-0.628,3.125c0.463,1.558,1.03,1.64,1.03,1.64l0.989-2.61c0,0-0.009,2.788,1.301,2.836
						c1.307,0.034,4.213-2.934,4.213-2.934s0.072-1.017,0.018-2.266c-0.812-1.608-1.818-3.352-2.976-4.841
						c-1.473-0.486-3.412-1.043-4.586-1.045c0,0,0.562,0.055,0.614,1.375c0.055,1.334-2.837,2.008-2.837,2.008
						S139.741,86.29,139.364,87.263z"/>
					<path style="fill:#59291E;" d="M189.381,113.506c-2.008,3.472-5.559,5.919-9.898,7.673c-6.526,2.655-14.833,3.734-22.303,4.437
						c-0.181,0.018-0.347,0.034-0.528,0.052c-12.523,1.156-17.539-3.15-19.298-11.463c-1.759-8.313,4.416-14.343,4.416-14.343
						c-0.929-6.68,1.533-12.044,5.238-16.541c0.476-0.58,1.041-1.134,1.671-1.644c0.889-0.725,1.931-1.379,3.078-1.924
						c0.963-0.47,2.008-0.869,3.113-1.18c1.442-0.4,2.993-0.664,4.589-0.752c0.462-0.026,0.927-0.039,1.41-0.027
						c1.302,0.007,2.627,0.137,3.963,0.407c0.822,0.164,1.639,0.385,2.467,0.661c8.003,2.667,13.323,14.034,13.323,14.034
						C189.612,96.491,194.496,104.64,189.381,113.506z"/>
					<path style="fill:#F8CAC9;" d="M181.201,112.144c3.087,17.256-31.877,19.294-30.295,3.473c0.133-1.335,0.695-2.584,1.485-3.658
						c2.747-3.728,8.522-6.229,13.001-6.571C172.733,104.836,180.505,108.25,181.201,112.144z"/>
					<path style="fill:#59291E;" d="M169.672,113.113c-0.106-0.159-0.322-0.2-0.483-0.095c-0.941,0.634-1.745,0.812-2.385,0.53
						c-1.107-0.489-1.514-2.205-1.607-2.682c-0.014-0.083-0.025-0.137-0.028-0.151c-0.011-0.05-0.051-0.079-0.08-0.118
						c-0.022-0.031-0.031-0.07-0.062-0.091c-0.043-0.031-0.098-0.029-0.151-0.038c-0.035-0.006-0.063-0.03-0.099-0.025
						c-0.004,0.001-0.007,0.001-0.011,0.002c-0.003,0.001-0.007,0.001-0.011,0.002c-0.036,0.008-0.054,0.04-0.084,0.058
						c-0.047,0.026-0.099,0.044-0.128,0.088c-0.021,0.031-0.016,0.07-0.026,0.107c-0.014,0.046-0.041,0.088-0.034,0.139
						c0.002,0.014,0.01,0.068,0.026,0.151c0.078,0.48,0.293,2.23-0.575,3.073c-0.499,0.486-1.313,0.599-2.42,0.332
						c-0.186-0.043-0.375,0.071-0.42,0.257c-0.044,0.187,0.07,0.375,0.257,0.42c0.693,0.167,1.302,0.203,1.822,0.11
						c0.497-0.089,0.914-0.296,1.247-0.621c0.459-0.447,0.683-1.055,0.786-1.656c0.306,0.527,0.727,1.02,1.313,1.279
						c0.425,0.188,0.888,0.238,1.385,0.149c0.521-0.093,1.079-0.339,1.671-0.736C169.737,113.489,169.779,113.273,169.672,113.113z"
						/>
					<path style="fill:#5F1919;" d="M164.589,110.83c0,0-2.406-0.869-2.174-1.869c0.231-1,3.282-1.547,3.907-1.111
						C166.948,108.285,165.883,110.461,164.589,110.83z"/>
					<path style="fill:#FFF7F7;" d="M173.09,108.14c-0.124,0.022-0.257-0.024-0.339-0.133c-0.117-0.153-0.086-0.371,0.067-0.487
						c0.115-0.088,11.73-8.855,23.45-14.619c0.171-0.089,0.381-0.014,0.466,0.159c0.085,0.172,0.014,0.381-0.159,0.466
						c-11.658,5.734-23.221,14.462-23.337,14.549C173.193,108.109,173.143,108.131,173.09,108.14z"/>
					<path style="fill:#FFF7F7;" d="M175.889,111.03c-0.155,0.028-0.315-0.053-0.38-0.203c-0.077-0.176,0.004-0.381,0.18-0.459
						c0.666-0.291,16.405-7.124,24.632-7.816c0.192-0.016,0.36,0.126,0.376,0.318c0.016,0.191-0.127,0.356-0.318,0.376
						c-8.123,0.674-24.25,7.689-24.411,7.76C175.941,111.018,175.915,111.025,175.889,111.03z"/>
					<path style="fill:#FFF7F7;" d="M196.936,111.863c-0.026,0.005-0.053,0.006-0.082,0.005c-7.151-0.419-20.716,2.714-20.853,2.744
						c-0.2,0.05-0.374-0.074-0.418-0.26c-0.044-0.187,0.073-0.374,0.26-0.418c0.137-0.032,13.797-3.187,21.051-2.762
						c0.192,0.011,0.338,0.176,0.327,0.368C197.212,111.705,197.092,111.836,196.936,111.863z"/>
					<path style="fill:#FFF7F7;" d="M156.87,111.838c-0.044,0.008-0.091,0.007-0.137-0.003c-13.196-2.936-29.879-1.718-30.046-1.705
						c-0.191,0.015-0.359-0.129-0.373-0.321c-0.014-0.192,0.132-0.357,0.321-0.373c0.168-0.013,16.951-1.239,30.25,1.72
						c0.188,0.042,0.305,0.228,0.264,0.415C157.117,111.712,157.004,111.814,156.87,111.838z"/>
					<path style="fill:#FFF7F7;" d="M156.251,115.508c-0.02,0.004-0.04,0.006-0.061,0.005c-8.169,0.027-26.526,3.8-26.71,3.837
						c-0.003,0.001-0.006,0.001-0.009,0.002c-0.185,0.033-0.364-0.087-0.402-0.272c-0.039-0.188,0.083-0.372,0.271-0.411
						c0.185-0.037,18.61-3.824,26.849-3.851c0.192-0.001,0.348,0.155,0.349,0.347C156.538,115.336,156.413,115.479,156.251,115.508z
						"/>
					<path style="fill:#FFF7F7;" d="M133.648,125.858c-0.16,0.029-0.323-0.058-0.385-0.215c-0.071-0.179,0.017-0.381,0.196-0.451
						c0.709-0.279,17.428-6.834,24.463-7.617c0.191-0.021,0.363,0.117,0.384,0.308c0.021,0.191-0.097,0.363-0.308,0.385
						c-6.942,0.764-24.111,7.505-24.284,7.573C133.693,125.848,133.67,125.854,133.648,125.858z"/>
					<g>
						<path style="fill:#090B24;" d="M170.894,100.595c0.238,1.328-0.174,2.514-0.92,2.647c-0.746,0.134-1.544-0.835-1.782-2.163
							c-0.238-1.328,0.173-2.514,0.92-2.647C169.858,98.299,170.656,99.267,170.894,100.595z"/>
						<path style="fill:#FFF7F7;" d="M170.244,99.745c0.034,0.188-0.091,0.367-0.279,0.401c-0.188,0.034-0.367-0.091-0.401-0.279
							c-0.034-0.188,0.091-0.367,0.279-0.401C170.031,99.432,170.21,99.557,170.244,99.745z"/>
					</g>
					<g>
						<path style="fill:#090B24;" d="M157.888,102.927c0.238,1.328-0.174,2.514-0.92,2.647c-0.746,0.134-1.544-0.835-1.782-2.163
							c-0.238-1.328,0.174-2.514,0.92-2.648C156.851,100.63,157.649,101.599,157.888,102.927z"/>
						<path style="fill:#FFF7F7;" d="M157.238,102.077c0.034,0.188-0.091,0.367-0.279,0.401c-0.188,0.034-0.367-0.091-0.401-0.279
							c-0.034-0.188,0.091-0.367,0.279-0.401C157.025,101.764,157.204,101.889,157.238,102.077z"/>
					</g>
					<path style="fill:#FFF7F7;" d="M160.238,83.822c0.329,2.544,1.262,9.01-0.984,7.291c0,0-2.293-4.582-2.798-6.613
						c-0.348-1.465-1.414-4.259-1.586-5.925c1.442-0.4,2.993-0.664,4.589-0.752C159.821,79.441,160.02,82.05,160.238,83.822z"/>
					<path style="fill:#FFF7F7;" d="M164.832,78.203c0.195,2.978-0.034,9.356-1.627,9.543c0,0-2.031-6.751-2.336-9.95
						C162.172,77.803,163.497,77.933,164.832,78.203z"/>
					<path style="fill:#FFF7F7;" d="M154.722,89.267c-0.372,0.604-0.523,1.183-1.502-0.014c0,0-3.614-5.01-4.541-7.574
						c0.889-0.725,1.931-1.379,3.078-1.924C152.783,82.556,155.005,88.791,154.722,89.267z"/>
				</g>
			</g>
		</g>
	</g>
	<g>
		<circle id="XMLID_2_" style="fill:#EBEBFF;" cx="423.797" cy="366.252" r="36.965"/>
		<g>
			<g>
				<path style="fill:#FE656D;" d="M449.885,380.114l-3.707-35.177c-0.642,0.45-1.444,0.815-2.419,1.034
					c-3.504,0.788-7.671-0.48-9.308-2.833c-1.637-2.353-0.124-4.899,3.38-5.687c3.504-0.788,7.671,0.48,9.308,2.833
					c0.31,0.445,0.472,0.894,0.564,1.34l0.032-0.009l6.031,38.091L449.885,380.114z"/>
			</g>
			<g>
				<g>
					<path style="fill:#FE656D;" d="M427.973,390.857l0.015,0.005l7.476-30.802l0,0l1.456-5.999l-3.811-0.654l0,0l-27.165-4.661
						l-6.544,34.762c-0.603-0.5-1.373-0.929-2.327-1.227c-3.428-1.069-7.685-0.143-9.507,2.07c-1.822,2.213-0.52,4.873,2.908,5.942
						c3.428,1.069,7.685,0.142,9.507-2.07c0.345-0.418,0.543-0.853,0.671-1.289l0.031,0.011l7.418-30.565l23.844,3.207
						l-5.358,28.461c-0.602-0.496-1.368-0.921-2.316-1.217c-3.428-1.069-7.685-0.143-9.507,2.07
						c-1.822,2.212-0.521,4.873,2.908,5.942c3.428,1.069,7.685,0.143,9.507-2.07C427.689,392.154,427.931,391.501,427.973,390.857z"
						/>
				</g>
			</g>
		</g>
	</g>
	<g>
		<g>
			<defs>
				
					<ellipse id="XMLID_1_" transform="matrix(0.1584 -0.9874 0.9874 0.1584 177.2977 526.4243)" cx="397.439" cy="159.213" rx="36.965" ry="36.964"/>
			</defs>
			<use xlink:href="#XMLID_1_"  style="overflow:visible;fill:#EBEBFF;"/>
			<clipPath id="XMLID_00000029003884015582728910000014691406535493197714_">
				<use xlink:href="#XMLID_1_"  style="overflow:visible;"/>
			</clipPath>
			<g style="clip-path:url(#XMLID_00000029003884015582728910000014691406535493197714_);">
				<g>
					<g>
						<path style="fill:#7ED2C4;" d="M443.441,140.719l4.191,46.87c0.286,3.195-2.075,6.02-5.27,6.306l-75.372,6.74
							c-3.195,0.286-6.02-2.075-6.306-5.27l-4.191-46.87c-0.286-3.195,2.077-6.002,5.272-6.287l75.372-6.74
							C440.332,135.182,443.155,137.524,443.441,140.719z"/>
						<polygon style="fill:#63A69A;" points="443.792,144.645 443.955,146.471 426.153,148.063 427.13,183.074 390.704,186.331 
							395.564,198.08 393.665,198.25 380.915,167.421 358.365,169.438 358.202,167.612 408.45,163.118 408.613,164.944 
							382.814,167.251 389.974,184.556 425.251,181.401 424.327,148.226 378.187,152.352 375.605,140.97 377.43,140.806 
							379.612,150.384 424.273,146.39 423.99,136.643 425.816,136.479 426.099,146.227 						"/>
					</g>
				</g>
			</g>
		</g>
		<path style="fill:#FE656D;" d="M406.461,116.707c-2.886,0-11.471,1.629-11.471,12.362s11.471,23.321,11.471,23.321
			s11.471-12.588,11.471-23.321S409.348,116.707,406.461,116.707z M406.461,133.649c-3.347,0-6.06-2.713-6.06-6.06
			c0-3.347,2.713-6.06,6.06-6.06c3.347,0,6.06,2.713,6.06,6.06C412.521,130.936,409.808,133.649,406.461,133.649z"/>
	</g>
</g>
</svg>
